<svg width="44" height="44" viewBox="0 0 44 44" fill="none" xmlns="http://www.w3.org/2000/svg">
<path d="M21.8433 43.9995C26.1944 44.0304 30.4569 42.7704 34.0919 40.3789C37.7269 37.9873 40.5711 34.5715 42.2648 30.5635C43.9585 26.5554 44.4256 22.1352 43.6071 17.8617C42.7886 13.5882 40.7213 9.65333 37.6665 6.55476C34.6117 3.45619 30.7067 1.33305 26.4453 0.453833C22.1838 -0.425386 17.7574 -0.0211981 13.7257 1.61528C9.69394 3.25177 6.23803 6.04704 3.79496 9.64763C1.35189 13.2482 0.0313743 17.4924 0.000414091 21.8435C-0.0362368 27.6766 2.24332 33.286 6.33861 37.44C10.4339 41.594 16.0102 43.9531 21.8433 43.9995ZM13.5016 20.5315L24.5665 11.4434C24.7525 11.2903 24.9668 11.1755 25.1972 11.1053C25.4276 11.0351 25.6696 11.011 25.9093 11.0343C26.149 11.0576 26.3818 11.128 26.5943 11.2412C26.8068 11.3545 26.995 11.5086 27.148 11.6946C27.301 11.8806 27.4159 12.0949 27.486 12.3253C27.5562 12.5556 27.5803 12.7976 27.557 13.0373C27.5337 13.277 27.4634 13.5098 27.3501 13.7223C27.2368 13.9349 27.0828 14.123 26.8968 14.276L17.5321 21.9682L26.7864 29.7929C26.9702 29.9486 27.1215 30.1389 27.2318 30.353C27.342 30.5671 27.409 30.8009 27.4289 31.0409C27.4488 31.2809 27.4213 31.5225 27.3478 31.7519C27.2744 31.9813 27.1564 32.1939 27.0008 32.3777C26.8452 32.5615 26.6549 32.7128 26.4407 32.8231C26.2266 32.9333 25.9929 33.0003 25.7528 33.0202C25.5128 33.0402 25.2712 33.0126 25.0419 32.9392C24.8125 32.8657 24.5999 32.7478 24.4161 32.5922L13.4816 23.3474C13.2765 23.1739 13.112 22.9574 12.9998 22.7133C12.8877 22.4692 12.8305 22.2034 12.8324 21.9348C12.8343 21.6661 12.8953 21.4012 13.0109 21.1587C13.1265 20.9162 13.294 20.7021 13.5016 20.5315Z" fill="#E6FC15"/>
</svg>
